<svg aria-hidden="true" style="position: absolute; width: 0; height: 0; overflow: hidden;" version="1.1" xmlns="http://www.w3.org/2000/svg" xmlns:xlink="http://www.w3.org/1999/xlink">
<defs>
<symbol id="icon-Email" viewBox="0 0 43 32">
<path stroke-linejoin="miter" stroke-linecap="butt" stroke-miterlimit="4" stroke-width="2.6667" d="M2.687 4.001v-0.001c0-1.472 1.192-2.667 2.647-2.667h32c1.464 0 2.667 1.203 2.667 2.667v24c0 1.464-1.203 2.667-2.667 2.667h-32c-1.463 0-2.666-1.203-2.667-2.666 0-0 0-0 0-0.001l0.020-23.999zM37.24 9.631v0l0.012-0.008c0.872-0.558 1.415-1.516 1.415-2.563 0-2.404-2.621-3.81-4.631-2.576v-0l-0.009 0.006-12.693 7.938-12.702-7.944c-2.010-1.234-4.631 0.172-4.631 2.576 0 1.047 0.543 2.005 1.415 2.563l-0 0 14.152 8.848c1.072 0.67 2.461 0.67 3.533 0l0-0 14.14-8.84z"></path>
</symbol>
<symbol id="icon-Phone" viewBox="0 0 32 32">
<path d="M28.865 21.822l-4.525-0.517c-1.087-0.125-2.155 0.249-2.921 1.015l-3.278 3.278c-5.041-2.565-9.174-6.68-11.739-11.739l3.296-3.296c0.766-0.766 1.14-1.835 1.015-2.921l-0.517-4.489c-0.214-1.799-1.728-3.153-3.545-3.153h-3.082c-2.013 0-3.687 1.675-3.563 3.687 0.944 15.213 13.111 27.362 28.306 28.306 2.013 0.125 3.687-1.55 3.687-3.563v-3.082c0.018-1.799-1.336-3.313-3.135-3.527z"></path>
</symbol>
<symbol id="icon-Name" viewBox="0 0 32 32">
<path d="M16 16c4.42 0 8-3.58 8-8s-3.58-8-8-8c-4.42 0-8 3.58-8 8s3.58 8 8 8zM16 20c-5.34 0-16 2.68-16 8v2c0 1.1 0.9 2 2 2h28c1.1 0 2-0.9 2-2v-2c0-5.32-10.66-8-16-8z"></path>
</symbol>
</defs>
</svg>
